<svg xmlns="http://www.w3.org/2000/svg" width="555.72" height="710.093" viewBox="0 0 555.72 710.093">
  <g id="Bigode_Cuteleiro" data-name="Bigode Cuteleiro" transform="translate(-957.478 103.77)">
    <g id="down_part" data-name="down part" transform="translate(964.319 337.393)">
      <g id="shoes" transform="translate(0 218.105)">
        <path id="Caminho_7583" data-name="Caminho 7583" d="M-11060.165-5057.347v10.629h-46.567l3.037-10.629-34.42,14.679a143.106,143.106,0,0,1-33.912,2.53c-17.463-1.012-35.938-6.58-35.938-6.58s-1.9-6.833,0-10.629,15.691-5.568,15.691-5.568a68.5,68.5,0,0,0,31.382-2.53c17.21-5.441,29.357-18.223,29.357-18.223Z" transform="translate(11208.81 5083.668)" fill="#a8634c" stroke="#000" stroke-width="5"/>
        <path id="Caminho_7584" data-name="Caminho 7584" d="M-10783.523-5058.765l-7.087,20.753h46.567v-11.136l26.32,11.136s13.666,5.062,33.407,5.062,45.556-5.062,45.556-5.062l-1.434-7.4c-.759-3.923-11.221-6.771-11.221-6.771s-19.614.253-36.951-4.555-22.777-16.2-22.777-16.2Z" transform="translate(11024.497 5081.275)" fill="#9b5340" stroke="#000" stroke-width="5"/>
      </g>
      <g id="pants" transform="translate(65.534 0)">
        <path id="Caminho_7582" data-name="Caminho 7582" d="M-11112.406-5748.124s-40.494,17.716-69.852,42.012-47.579,55.172-47.579,55.172a328.659,328.659,0,0,0-42.519-17.716,389.766,389.766,0,0,0-47.072-11.642l-8.605-3.037s25.182-31.635,36.443-86.048c5.282-25.52,17.331-52.484,21.136-76.9a170.211,170.211,0,0,0,0-51.005l253.712-3.692-5.567,138.688s-20.247,25.815-32.395,48.086-16.2,41-16.2,41-26.7,7.592-49.1,10.124a179.508,179.508,0,0,1-40.493,0l12.147-64.283" transform="translate(11328.033 5900.985)" fill="#6d6e70" stroke="#000" stroke-width="5"/>
      </g>
    </g>
    <g id="body" transform="translate(946.225 -147.331)">
      <g id="shirt" transform="translate(139.387 323.395)">
        <path id="Caminho_7599" data-name="Caminho 7599" d="M-10747.717-10084.715l-7.7,79.553v122.324l272.877-43.626-123.18-188.19Z" transform="translate(10755.416 10114.654)" fill="#00adf0" stroke="#000" stroke-width="5"/>
        <path id="Caminho_7600" data-name="Caminho 7600" d="M-9986.624-10360.186l12.854,90.092,10.937,104.9,13.666-2.012-13.666-104.378-13.16-90.614Z" transform="translate(10006.317 10388.774)" fill="#fff"/>
        <path id="Caminho_7606" data-name="Caminho 7606" d="M-9982.037-10370.141l6.4,61.759,7.656,73.954,9.565-1.417-9.565-73.585-11.959-78.382Z" transform="translate(9984.634 10462.011)" fill="#fff"/>
        <path id="Caminho_7601" data-name="Caminho 7601" d="M-9986.624-10360.172l12.854,90.738,10.937,105.653,13.573-1.457-13.573-105.694-13.16-91.264Z" transform="translate(10036.317 10381.7)" fill="#fff"/>
        <path id="Caminho_7602" data-name="Caminho 7602" d="M-9986.624-10360.172l12.854,90.738,10.937,106.563,14.188-2.1-14.188-105.963-13.16-91.264Z" transform="translate(10067.45 10376.04)" fill="#fff"/>
        <path id="Caminho_7603" data-name="Caminho 7603" d="M-9986.624-10360.172l12.854,90.738,12.329,109.428,12.878-2.1-14.271-108.83-13.16-91.264Z" transform="translate(10099.714 10368.682)" fill="#fff"/>
        <path id="Caminho_7604" data-name="Caminho 7604" d="M-9987.617-10363.762l13.416,92.868,10.936,107.8,13.086-2.146-13.086-107.151-14.768-93.167Z" transform="translate(10123.493 10367.877)" fill="#fff"/>
        <path id="Caminho_7605" data-name="Caminho 7605" d="M-9987.234-10322.7l13.2,70.405,10.936,103.606,14.5-2.4-14.5-102.709-10.936-47.941Z" transform="translate(10152.762 10349.278)" fill="#fff"/>
        <path id="Caminho_7607" data-name="Caminho 7607" d="M-9984.9-10325.383l11.875,48.974,10.937,69.832,14.5-1.614-14.5-69.228-10.937-32.313Z" transform="translate(10181.746 10401.164)" fill="#fff"/>
        <path id="Caminho_7608" data-name="Caminho 7608" d="M-9982.4-10334.076l10.461,34.5,10.936,41.3,14.5-.955-14.5-40.938-10.936-19.11Z" transform="translate(10205.567 10448.833)" fill="#fff"/>
      </g>
      <g id="apron" transform="translate(139.387 340.919)">
        <path id="Caminho_7585" data-name="Caminho 7585" d="M-10969.459-5474.378s42.266,19.993,124.518,16.2c45.238-2.088,97.184-11.136,139.7-25.814a338.032,338.032,0,0,1,64.789-5.568s-16.07-104.776-64.789-175.639-147.671-121.679-147.671-121.679l-12.5,10.528s37.935,29.277,58.435,50.916,36.443,49.6,36.443,49.6a220.817,220.817,0,0,1-47.58,10.63c-25.814,2.657-55.678,0-55.678,0a374.242,374.242,0,0,1-31.889-47.074c-14.8-26.194-31.383-57.7-31.383-57.7h-10.629s18.1,77.444,12.654,151.344S-10969.459-5474.378-10969.459-5474.378Z" transform="translate(10969.459 5786.881)" fill="#fff" stroke="#000" stroke-width="5"/>
      </g>
      <g id="right_part" data-name="right part" transform="translate(195.588)">
        <g id="right_arm" data-name="right arm" transform="matrix(0.899, -0.438, 0.438, 0.899, 0, 144.357)">
          <path id="Caminho_7611" data-name="Caminho 7611" d="M0,75.334l12.864,33.69,15.926,29.4s9.187,12.865,22.05,12.865S88.82,138.426,88.82,138.426s37.061-31.853,63.706-49.615,24.5-19.6,33.078-21.44,47.572,0,47.572,0,4.89-.236,6.194-3.821-2.608-6.519-2.608-6.519,6.968-.693,8.313-4.4S242.14,42.2,242.14,42.2s6.561-2.16,7.5-6.52-11.813-11.063-11.813-11.063,10.267-.6,12.06-4.8-10.169-13.99-10.169-13.99L221.568,10.52s5.274-2.889,5.92-6.409-3.335-7.673-3.335-7.673L197.946,10.9l-6.173,7.759-6.169,2.81L88.82,72.27s-5.808,1.225-10.708,0a23.423,23.423,0,0,1-8.893-4.9L55.13,26.942Z" transform="translate(0 242.295) rotate(-31)" fill="#fcbb90" stroke="#000" stroke-width="3"/>
          <g id="Grupo_21012" data-name="Grupo 21012" transform="translate(83.879 66.911) rotate(-24)">
            <path id="Caminho_7594" data-name="Caminho 7594" d="M0,6.087V99.038L9.692,97.9s3.349,1.6,3.357,4-3.325,5.6-3.325,5.6L1.74,115.16,0,223.812s4.752,10.1,10.164,10.1,11.483-10.1,11.483-10.1L19.96,197.806,21.647,180.9l-.3-16.921s-5.091-4.473-5.091-7.594,6.333-3.653,6.333-3.653S14.842,148.31,14.9,144.7s6.748-4.319,6.748-4.319l6.547-1.616s-12.192-5.2-12.246-9.581,8.413-8.563,8.413-8.563h0s-10.394-3.619-9.491-8.2,8.058-9.348,8.058-9.348L21.647,6.087S15.576,0,10.165,0,0,6.087,0,6.087Z" transform="translate(66.42)" fill="#58370b" stroke="#000" stroke-width="3"/>
            <path id="Caminho_7593" data-name="Caminho 7593" d="M0,0,47.144,6.659,54.292,0H103.63l3.864,6.659L154.71,0s9.8,9.39,9.8,19.719-9.8,21.6-9.8,21.6l-47.217-7.283-3.864,7.283H54.292l-7.148-7.845L0,41.319Z" transform="translate(0 6.398)" fill="#2b2b2b" stroke="#000" stroke-width="3"/>
          </g>
        </g>
        <g id="right_sleeve" data-name="right sleeve" transform="translate(139.547 437.883) rotate(-129)">
          <path id="Caminho_7578" data-name="Caminho 7578" d="M74.034,17.337,0,36.459S15.143,50.735,37.142,70.766c15.487,14.1,25.368,36.767,25.368,36.767s.222-4.409,12.741-24.44c5.3-8.473,20.146-10.9,26.29-14.346,8.042-4.515,32.034-22.248,32.034-22.248l-5.385-20.074L125.575,0Z" fill="#00adf0" stroke="#000" stroke-width="4"/>
          <path id="Caminho_7579" data-name="Caminho 7579" d="M0,1.427S15.989,14.149,27.778,27.643a281.856,281.856,0,0,1,21.883,29.3l5.183-5.1a309.916,309.916,0,0,0-22.1-28.6A241.389,241.389,0,0,0,8.59,0Z" transform="translate(25.112 29.279)" fill="#fff"/>
          <path id="Caminho_7580" data-name="Caminho 7580" d="M0,2.492S4.334,6.21,14.86,18.341,29.948,39.867,29.948,39.867l4.561-5.837a229.463,229.463,0,0,0-17.895-23.35C6.263-1.087,5.991.029,5.991.029Z" transform="translate(55.617 21.845)" fill="#fff"/>
          <path id="Caminho_7581" data-name="Caminho 7581" d="M0,1.876s8.409,9.542,14.854,18.291A112.86,112.86,0,0,1,25.79,39.227l3.125-4.062a83.673,83.673,0,0,0-9.062-16.248C13.682,10.168,6.782,0,6.782,0Z" transform="translate(98.748 7.821)" fill="#fff"/>
          <path id="Caminho_7612" data-name="Caminho 7612" d="M0,1.876s8.409,9.542,14.854,18.291A112.86,112.86,0,0,1,25.79,39.227l3.125-4.062a83.673,83.673,0,0,0-9.062-16.248C13.682,10.168,6.782,0,6.782,0Z" transform="translate(78.55 14.773)" fill="#fff"/>
        </g>
      </g>
      <g id="left_part" data-name="left part" transform="translate(0 318.712)">
        <g id="left_arm" data-name="left arm" transform="translate(0 0)">
          <g id="Grupo_21010" data-name="Grupo 21010" transform="matrix(0.998, -0.07, 0.07, 0.998, 244.846, 15.632)">
            <path id="Caminho_7587" data-name="Caminho 7587" d="M11.872,141.175l3.824,1.8L25.3,151.8l8.174-7.135s51.664-55.27,75.214-81.943c10.861-14.466,17.782-16.821,28.6-38.688C145.418,8.871,142.094,0,142.094,0L0,128.367Z" transform="translate(80.91)" fill="#ebe9eb" stroke="#000" stroke-width="3"/>
            <path id="Caminho_7590" data-name="Caminho 7590" d="M0,86.22,29.99,108.712s5.218-4.966,9.9-15.041,8.84-25.258,8.84-25.258,1.492-4.059,3.174-7.9c3.678-4.643,13.246-10.766,19.464-18.023,5.366-6.262,6.968-13.018,11.295-19.058A48.428,48.428,0,0,1,92.781,12.808L80.91,0a43.574,43.574,0,0,1-7.855,9.085c-5.474,4.928-13.97,11.374-22.347,18.744-9.853,8.668-19.787,18.524-27.59,26.84-3.9,4.16-6.557,8.6-9.417,12.089C2.486,80.425,0,86.22,0,86.22Z" transform="translate(0 128.232)" fill="#003566" stroke="#000" stroke-width="3"/>
            <path id="Caminho_7589" data-name="Caminho 7589" d="M1.693,0a127.461,127.461,0,0,0,12.744,10.96c7.569,5.707,17.339,11.59,17.339,11.59l-2.133,2.844L0,3.037Z" transform="translate(0.462 211.325)" fill="#e4b516"/>
            <path id="Caminho_7588" data-name="Caminho 7588" d="M4.99,0,15.9,11.918,10.613,17.2,0,6.1Z" transform="translate(76.113 128.811)" fill="#e4b516"/>
            <path id="Caminho_7591" data-name="Caminho 7591" d="M6.055,140.383S57.719,85.114,81.27,58.44c10.861-14.466,17.783-16.821,28.6-38.688C118,4.592,115.345,0,115.345,0s-4.795,11-20.425,31C89.8,37.551,81.294,45.4,74.013,54.068,45.345,88.178,0,133.366,0,133.366Z" transform="translate(108.332 4.278)" fill="rgba(164,164,164,0.27)"/>
          </g>
          <path id="Caminho_7586" data-name="Caminho 7586" d="M13.553,85.52l15.867,41.553,19.643,36.265s11.331,15.868,27.2,15.868S123.1,163.339,123.1,163.339s32.16-31.729,65.024-53.639,30.223-24.177,40.8-26.445,58.677,0,58.677,0,6.031-.291,7.639-4.713-3.217-8.041-3.217-8.041,8.594-.854,10.252-5.428-3.618-12.866-3.618-12.866,8.091-2.664,9.247-8.041S303.284,30.7,303.284,30.7s9.449-2.061,11.66-7.237-2.815-13.469-2.815-13.469L272.537,8.731,273.271,0,260.5,3.7,246.361,18.705l-17.434,7.939L109.552,89.3s-7.163,1.511-13.208,0a28.891,28.891,0,0,1-10.968-6.043L68,33.391Z" transform="translate(96.191 0.436) rotate(31)" fill="#fcbb90" stroke="#000" stroke-width="3"/>
        </g>
        <g id="left_sleeve" data-name="left sleeve" transform="translate(15.468 61.843) rotate(-20)">
          <path id="Caminho_7578-2" data-name="Caminho 7578" d="M-10558-6676.99a281.549,281.549,0,0,1-42.924,23.608c-25.039,11.088-55.051,38.624-55.051,38.624s29.476-3.57,51.475,16.461a119.884,119.884,0,0,0,46.5,26.118s2.5,3.929,15.023-16.1,26.027-41.427,26.027-41.427l3.573-21.355-23.162-25.926Z" transform="translate(10658.158 6676.99)" fill="#00adf0" stroke="#000" stroke-width="4"/>
          <path id="Caminho_7579-2" data-name="Caminho 7579" d="M-10595.8-6616.355a230.274,230.274,0,0,1,37.049,26.681c17.17,15.56,32.325,34.975,32.325,34.975l4.717-6.984s-17.624-19.5-34.079-34.34a350.379,350.379,0,0,0-31.472-25.237Z" transform="translate(10632.304 6653.707)" fill="#fff"/>
          <path id="Caminho_7580-2" data-name="Caminho 7580" d="M-10539.9-6643.1s19.616,16.341,32.316,30.416a163.909,163.909,0,0,1,19.943,27.172l4.607-7.621a277.125,277.125,0,0,0-22.436-28.441,268.07,268.07,0,0,0-27.115-25.274Z" transform="translate(10606.959 6664.44)" fill="#fff"/>
          <path id="Caminho_7581-2" data-name="Caminho 7581" d="M-10492.755-6670.9s12.685,11.594,21.415,23.447,17.237,28.82,17.237,28.82l4.488-6.692s-6.592-11.969-14.952-23.821-21.166-25.4-21.166-25.4Z" transform="translate(10586.38 6675.93)" fill="#fff"/>
        </g>
      </g>
    </g>
    <g id="head" transform="translate(960.678 -53.748)">
      <path id="Caminho_7560" data-name="Caminho 7560" d="M-10461.325-7149.008s-22.177,14.308-15.738,36.485,32.908,14.308,32.908,14.308.716,33.444,15.738,55.085,44.354,31.478,44.354,31.478,31.479,18.064,62.24,7.869,60.808-48.646,60.808-48.646,16.454-25.754,17.886-45.785-12.162-34.339-12.162-34.339-33.266-14.129-47.217-38.631-8.584-59.378-8.584-59.378l-72.971,25.039Z" transform="translate(10527.485 7274.148)" fill="#fcbb90" stroke="#000" stroke-width="2"/>
      <g id="Grupo_21009" data-name="Grupo 21009" transform="translate(63.312 0)">
        <path id="Caminho_7558" data-name="Caminho 7558" d="M-10450.887-7166.953s12.876-49.362,37.2-72.255,60.094-19.315,60.094-19.315l5.723,9.3-17.885,22.177-16.453,20.031Z" transform="translate(10450.887 7293.331)" fill="#bd1d21" stroke="#000" stroke-width="2"/>
        <path id="Caminho_7559" data-name="Caminho 7559" d="M-10390.158-7192.217s-2.777-28.258,12.036-44.354,53.528-25.971,53.528-25.971l5.009,7.153-35.645,41.71Z" transform="translate(10422.359 7299.922)" fill="#f57857" stroke="#000" stroke-width="2"/>
        <path id="Caminho_7556" data-name="Caminho 7556" d="M-10280.623-7289.848s14.129-18.242,45.785-35.77,80.84-34.339,80.84-34.339,29.688-3.04,38.631,4.292-2.861,25.039-2.861,25.039a68.043,68.043,0,0,1-29.332,22.178c-19.494,7.69-48.646,8.584-48.646,8.584h-32.192s-21.642,17.527-39.347,25.039-31.478,5.008-31.478,5.008Z" transform="translate(10355.638 7360.581)" fill="#ec1b22" stroke="#000" stroke-width="2"/>
        <path id="Caminho_7557" data-name="Caminho 7557" d="M-10272.241-7268.65s4.907-.085,26.726-17.613,33.445-39.346,59.379-56.516,44.354-14.308,44.354-14.308-67.427,53.3-100.155,75.116S-10272.241-7268.65-10272.241-7268.65Z" transform="translate(10353.192 7357.265)" fill="#f67c5c" stroke="#000" stroke-width="2"/>
      </g>
      <path id="Caminho_7561" data-name="Caminho 7561" d="M-10541.886-6862.795s9.837-3.756,15.739,0,7.869,15.023,7.869,15.023" transform="translate(10599.192 7006.843)" fill="none" stroke="#000" stroke-width="3"/>
      <path id="Caminho_7562" data-name="Caminho 7562" d="M-10522.093-6856.46s-4.829,1.968-6.438,5.724,0,9.3,0,9.3" transform="translate(10594.78 7003.521)" fill="none" stroke="#000" stroke-width="3"/>
      <path id="Caminho_7563" data-name="Caminho 7563" d="M-10412.865-6984.11s4.113-7.69,10.016-11.446,13.592-3.577,13.592-3.577a56.654,56.654,0,0,1-6.437-10.731,59.122,59.122,0,0,1-3.578-12.161s-10.194,8.406-13.592,17.885S-10412.865-6984.11-10412.865-6984.11Z" transform="translate(10532.037 7093.159)" fill="#883e2f" stroke="#000" stroke-width="2"/>
      <path id="Caminho_7564" data-name="Caminho 7564" d="M-10316.842-7012.568l-7.2,15.239a33.73,33.73,0,0,1,13.969,3.386c6.35,3.387,11.43,10.16,11.43,10.16s-3.492-13.123-8.043-20.319S-10316.842-7012.568-10316.842-7012.568Z" transform="translate(10502.97 7079.708)" fill="#883e2f" stroke="#000" stroke-width="2"/>
      <path id="Caminho_7565" data-name="Caminho 7565" d="M-10368.733-6975.548s.413,15.134,3.853,26.415a56.1,56.1,0,0,0,9.9,18.71s-8.666-2.477-13.757,0-6.6,9.905-6.6,9.905" transform="translate(10507.936 7072.672)" fill="none" stroke="#000" stroke-width="5"/>
      <path id="Caminho_7566" data-name="Caminho 7566" d="M-10369.955-6975.548s.338,12.333,3.14,21.526a45.724,45.724,0,0,0,8.071,15.248s-7.062-2.019-11.211,0-5.381,8.072-5.381,8.072" transform="translate(10559.306 7062.174)" fill="none" stroke="#000" stroke-width="5"/>
      <path id="Caminho_7567" data-name="Caminho 7567" d="M-10308.062-6905.437s13.056-12.52,27.9-18.6,31.479-5.723,31.479-5.723,15.023,5.366,18.6,15.739-4.292,25.754-4.292,25.754-10.016,15.023-22.893,20.031-28.616,0-28.616,0-13.413-.715-17.885-7.154,0-18.6,0-18.6" transform="translate(10492.031 7044.948)" fill="#fcbb90" stroke="#000" stroke-width="4"/>
      <path id="Caminho_7569" data-name="Caminho 7569" d="M-10253.955-6824.476s9.257,14.135,20.882,25.224a88.316,88.316,0,0,0,25.039,16.454s20.925,18.6,44.354,18.6,49.361-18.6,49.361-18.6-13.949,12.161-39.346-2.862c-13.055-7.722-21.713-28.748-34.34-41.493-11.778-11.891-29.33-19.479-29.33-19.479s-6.081,9.658-15.739,13.593S-10253.955-6824.476-10253.955-6824.476Z" transform="translate(10474.207 7004.975)" fill="#f89333" stroke="#000" stroke-width="4"/>
      <path id="Caminho_7575" data-name="Caminho 7575" d="M-10388.966-6829.729s9.08,21.875,30.267,33.569c10.467,5.776,24.174,11.33,35.219,13.207a59.71,59.71,0,0,0,9.969.833,45.883,45.883,0,0,0,9.293-.833l-12.657,8.8s9.769,9.355,6.054,14.858-17.609,7.7-17.609,7.7" transform="translate(10538.223 6998.951)" fill="none" stroke="#000" stroke-width="4"/>
      <path id="Caminho_7568" data-name="Caminho 7568" d="M-10404.64-6839.316s-10.016-5.187-30.762,12.162-27.185,38.631-52.224,57.231-47.932,17.169-47.932,17.169,23.787,12.7,56.516,5.723,49.184-14.487,74.4-33.623,31.449-49.521,31.449-49.521Z" transform="translate(10592.863 7009.264)" fill="#f89333" stroke="#000" stroke-width="4"/>
      <path id="Caminho_7570" data-name="Caminho 7570" d="M-10465.877-6963.027s-1.84,10.126-8.443,24.3-17.609,25.865-17.609,25.865-6.361-9.3-14.616-13.015-11.508-3.369-11.508-3.369l9.489-7.865,15.342-9.935Z" transform="translate(10579.779 7059.927)" fill="#f89333" stroke="#000" stroke-width="3"/>
      <path id="Caminho_7571" data-name="Caminho 7571" d="M-10589.584-6811.629s-8.8,7.292-18.16,4.953-19.261-14.308-19.261-14.308,2.476,12.795,9.905,19.812,19.811,8.254,19.811,8.254a44.457,44.457,0,0,1-25.312,5.7c-15.134-.963-24.486-19.457-24.486-19.457s4.033,21.753,18.2,28.769a109.183,109.183,0,0,0,27.744,9.2s-11.556,4.127-21.461,5.5-9.906,0-9.906,0,5.641,15.9,31.367,20.854,50.991-11.853,50.991-11.853-1.876-2.4-8.618-19.457a72.174,72.174,0,0,1-4.5-33.018h-13.547C-10583.009-6806.676-10589.584-6811.629-10589.584-6811.629Z" transform="translate(10647.088 6983.068)" fill="#f67f33" stroke="#000" stroke-width="3"/>
      <path id="Caminho_7572" data-name="Caminho 7572" d="M-10299.605-7025.785s14.49,3.827,23.771,12.374,13.35,21.817,13.35,21.817-1.139-18.154-7.814-26.7-18.886-7.49-18.886-7.49Z" transform="translate(10491.236 7089.242)" fill="#f3532c" stroke="#000" stroke-width="2"/>
      <path id="Caminho_7573" data-name="Caminho 7573" d="M-10323.768-7023.6s29.539,1.137,39.7,10.494,14.614,23.882,14.614,23.882-1.247-19.872-8.556-29.229-34.035-9.38-34.035-9.38Z" transform="translate(10520.282 7083.475)" fill="#f3532c" stroke="#000" stroke-width="2"/>
      <path id="Caminho_7574" data-name="Caminho 7574" d="M-10332.973-7019.425s34.75-4.01,44.908,5.347,11.425,27.7,11.425,27.7,1.942-23.688-5.364-33.045c-2.368-3.032-7.191-7.949-12.219-9.38-10.02-2.854-21.816,0-21.816,0Z" transform="translate(10539.285 7071.643)" fill="#f3532c" stroke="#000" stroke-width="2"/>
      <path id="Caminho_7576" data-name="Caminho 7576" d="M-10387-6843.34s-6.19,2.614-9.354,5.5a9.546,9.546,0,0,0-3.3,6.053" transform="translate(10542.589 7008.43)" fill="none" stroke="#000" stroke-width="4"/>
      <path id="Caminho_7577" data-name="Caminho 7577" d="M-10276.26-6803.183l2.026,14.527,1.479,20.289-8.516-2.016-10.27-1.252a53.052,53.052,0,0,1,5.01-7.014,28.119,28.119,0,0,0,4.03-6,37.834,37.834,0,0,1,6.239,6,29.616,29.616,0,0,1,3.506,7.014" transform="translate(10495.869 6984.637)" fill="#bd1d21" stroke="#000" stroke-width="3"/>
    </g>
  </g>
</svg>
