<svg xmlns="http://www.w3.org/2000/svg" width="1006.441" height="314.911" viewBox="0 0 1006.441 314.911">
  <g id="logo" transform="translate(-1453.939 -576.545)">
    <g id="Grupo_21000" data-name="Grupo 21000" transform="translate(-336.061 -330.416)">
      <path id="Caminho_7550" data-name="Caminho 7550" d="M0-95.266l149.431-34.24,145.63,34.24V12.076s-6.123,60.561-42.53,103.893-103.1,69.435-103.1,69.435S75.973,159.112,38.616,115.969,0,12.832,0,12.832Z" transform="translate(1790 1036.467)" fill="#fca311"/>
      <g id="Grupo_20997" data-name="Grupo 20997" transform="translate(1838.831 915.071)" opacity="0.55">
        <path id="Caminho_7553" data-name="Caminho 7553" d="M-10341.187-648.086s-31.191,22.6-35.473,79.269c-1.678,37.793,28.76,71.9,28.76,71.9s21.358,35.133,82.3,35.133c39.208,0,74.523-35.133,74.523-35.133s23.7-23.3,21.936-61.073c-4.786-31.229-11.081-38.281-16.876-48.607-8.559-12.844-15.359,15.363-27.448,15.615s-11.663-15.615-11.663-15.615,35.033-113.936-72.354-117.865c0,0-3.048.05-3.375,2.015s2.063,5.843,2.063,5.843,12.216,14.513,12.543,29.164S-10297.479-658-10297.479-658s-16,13.845-23.775,28.988-7.33,31.582-7.33,31.582-13.423-15.211-5.891-50.659c0,0-.111-1.558-.962-2.078a3.67,3.67,0,0,0-2.439,0Z" transform="translate(10376.728 724.459)" fill="#fa581a"/>
        <path id="Caminho_7554" data-name="Caminho 7554" d="M-9680.391-389.045s-8.629,14.852-9.12,30.076,7.156,30.82,7.156,30.82,21.554,23.462,43.409,24.2,44.007-21.252,44.007-21.252,10.76-14.125,10.43-30.086-13.755-33.757-13.755-33.757-39.565-29.139-20.248-83.815c.318,0,1.229-4.016,0-4.671s-4.912,2.052-4.912,2.052-25.1,23.61-34.508,45.218a63.557,63.557,0,0,0-3.141,41.216s12.44,29.139-7.206,15.715c.657.327-9.492-11.786-9.821-18.662C-9677.771-392.319-9680.391-389.045-9680.391-389.045Z" transform="translate(9742.191 550.611)" fill="#fff6a2"/>
      </g>
    </g>
    <g id="Grupo_20996" data-name="Grupo 20996" transform="translate(1053.023 -30.55)">
      <path id="Caminho_7551" data-name="Caminho 7551" d="M-50.852,6.713H-1.744V0H75.814V13.817S56.328,17.6,56.328,26.172,75.506,53.045,75.506,53.045H63.73S50,38.218,37.487,38.218,13.7,53.045,13.7,53.045H-2.053S8.684,40.3,8.762,31.732-2.053,20.3-2.053,20.3-20.9,19.3-31.7,16.288A61.484,61.484,0,0,1-50.852,6.713Z" transform="translate(1287 851.212)" fill="#fca311"/>
      <g id="Grupo_20995" data-name="Grupo 20995" transform="translate(1321.936 795.101)">
        <path id="Caminho_7552" data-name="Caminho 7552" d="M4.192,0,5.06.378,22.343.057l.754.37L85.115,0a4.192,4.192,0,0,1,4.192,4.192v2.1a4.192,4.192,0,0,1-4.192,4.192l-62.24-.614-.913.485L4.97,10.065l-.779.414A4.192,4.192,0,0,1,0,6.288v-2.1A4.192,4.192,0,0,1,4.192,0Z" transform="matrix(0.883, 0.469, -0.469, 0.883, 6.568, 7.816)" fill="#f9e893"/>
        <path id="Retângulo_365" data-name="Retângulo 365" d="M8.558,0h0a8.558,8.558,0,0,1,8.558,8.558V33.1a0,0,0,0,1,0,0H0a0,0,0,0,1,0,0V8.558A8.558,8.558,0,0,1,8.558,0Z" transform="translate(16.552 0) rotate(30)" fill="#f9e893"/>
      </g>
    </g>
    <g id="Grupo_21001" data-name="Grupo 21001" transform="translate(24 54.708)">
      <g id="Grupo_21002" data-name="Grupo 21002">
        <text id="A_Silva" data-name="A Silva" transform="translate(1749.172 671.584)" fill="#fff" font-size="150" font-family="WindSong-Regular, WindSong" letter-spacing="0.04em"><tspan x="0" y="0">A Silva</tspan></text>
        <text id="Custom_Knives" data-name="Custom Knives" transform="translate(1749 794)" fill="#fff" font-size="62" font-family="Montserrat-Regular, Montserrat" letter-spacing="0.04em"><tspan x="0" y="0">Custom Knives</tspan></text>
      </g>
    </g>
  </g>
</svg>
